<?xml version="1.0" standalone="no"?><!DOCTYPE svg PUBLIC "-//W3C//DTD SVG 20010904//EN" "http://www.w3.org/TR/2001/REC-SVG-20010904/DTD/svg10.dtd">
<svg version="1.0"
    xmlns="http://www.w3.org/2000/svg" width="512" height="512" viewBox="0 0 1024 1024" preserveAspectRatio="xMidYMid meet">
    <g transform="translate(0.000000,1024.000000) scale(0.100000,-0.100000)" fill="#8ab4f8" stroke="none">
        <path d="M5025 10198 c-22 -11 -184 -103 -360 -203 -176 -100 -750 -426 -1275 -725 -878 -499 -1285 -730 -2289 -1300 -201 -114 -379 -221 -396 -238 -18 -16 -43 -52 -56 -78 l-24 -49 -3 -2455 c-1 -1608 1 -2473 8 -2508 14 -76 53 -132 124 -180 34 -22 230 -136 436 -253 586 -332 860 -487 1060 -601 102 -58 399 -227 660 -375 261 -149 837 -476 1280 -728 443 -252 823 -466 845 -476 57 -26 125 -24 184 6 27 13 669 377 1427 808 759 431 1711 972 2117 1203 407 231 755 434 774 453 20 19 45 55 57 80 l21 46 0 2490 0 2490 -24 48 c-13 27 -38 63 -56 80 -30 28 -378 229 -1585 912 -355 201 -1670 949 -2340 1330 -195 111 -374 212 -397 224 -55 28 -134 28 -188 -1z m991 -1032 c489 -277 1395 -792 2014 -1144 l1125 -640 0 -2267 0 -2268 -465 -264 c-452 -258 -1579 -897 -2909 -1652 -360 -204 -657 -371 -661 -371 -4 0 -299 166 -656 368 -1353 768 -2221 1260 -2275 1291 l-57 32 -85 -23 c-77 -20 -93 -21 -171 -11 -69 8 -105 19 -171 53 -135 67 -208 161 -293 372 -8 19 -51 49 -169 116 l-158 89 0 2268 0 2267 1445 822 c795 452 1699 966 2010 1143 311 177 570 322 576 322 7 1 412 -226 900 -503z"/>
        <path d="M3750 7945 c-151 -49 -354 -235 -546 -500 -405 -559 -855 -1456 -1190 -2371 -206 -565 -323 -987 -390 -1404 -22 -138 -31 -584 -15 -719 16 -124 53 -283 85 -354 28 -64 93 -139 136 -157 40 -17 156 -9 203 14 141 69 266 273 491 799 404 945 563 1156 872 1157 259 1 316 -217 183 -694 -59 -210 -106 -409 -125 -521 -43 -265 29 -458 217 -578 92 -59 167 -79 307 -85 254 -9 461 56 687 216 99 71 298 267 397 392 74 93 208 288 261 382 17 29 32 45 41 42 9 -3 52 62 131 198 354 609 448 740 579 803 98 48 205 45 271 -7 64 -50 123 -253 189 -658 4 -21 -14 -46 -101 -140 -516 -562 -874 -1021 -959 -1230 -30 -75 -31 -130 -2 -182 46 -82 130 -99 204 -43 19 14 89 95 156 178 274 341 757 911 766 903 2 -3 14 -54 27 -115 80 -376 205 -607 382 -703 153 -83 385 -79 595 13 252 109 580 431 803 789 72 116 193 355 220 434 l20 59 -59 53 c-33 30 -64 53 -68 52 -5 -2 -33 -48 -62 -103 -178 -338 -488 -731 -692 -878 -114 -82 -255 -118 -347 -88 -49 17 -109 78 -140 143 -70 147 -130 460 -174 905 l-6 62 289 289 c413 413 614 575 786 633 34 11 66 23 71 26 12 7 -35 82 -75 119 -54 49 -116 77 -168 78 -122 0 -388 -203 -842 -643 -105 -101 -129 -120 -134 -105 -62 201 -146 347 -257 451 -112 104 -224 143 -417 143 -192 0 -312 -38 -451 -141 -179 -132 -293 -301 -474 -704 -120 -264 -201 -420 -286 -545 -359 -530 -811 -859 -1029 -747 -69 35 -85 76 -84 217 1 135 18 200 118 455 152 385 181 507 173 735 -6 171 -25 249 -94 383 -79 152 -211 260 -363 295 -181 42 -436 10 -610 -78 -196 -99 -483 -400 -647 -678 -93 -158 -255 -513 -354 -774 -18 -49 -36 -88 -41 -88 -4 0 -8 51 -8 113 0 306 64 663 186 1039 53 164 56 170 95 196 370 248 682 576 996 1047 306 460 557 1005 648 1410 36 160 44 338 21 455 -18 92 -76 225 -120 278 -66 77 -179 109 -276 77z m40 -719 c0 -35 -34 -170 -66 -266 -159 -466 -507 -1091 -826 -1485 -120 -149 -253 -292 -263 -283 -12 11 94 288 202 533 62 138 241 495 322 639 198 353 404 654 560 819 55 58 71 68 71 43z"/>
    </g>
</svg>
